<svg width="26" height="24" viewBox="0 0 26 24" fill="none" xmlns="http://www.w3.org/2000/svg">
<path d="M12.9533 21C18.0555 21 22.1917 16.9706 22.1917 12C22.1917 7.02944 18.0555 3 12.9533 3C7.85102 3 3.71484 7.02944 3.71484 12C3.71484 16.9706 7.85102 21 12.9533 21Z" stroke="#4B5563" stroke-width="2" stroke-linecap="round" stroke-linejoin="round"/>
<path d="M12.9534 12C14.0872 12 15.0064 11.1046 15.0064 10C15.0064 8.89543 14.0872 8 12.9534 8C11.8195 8 10.9004 8.89543 10.9004 10C10.9004 11.1046 11.8195 12 12.9534 12Z" stroke="#4B5563" stroke-width="2" stroke-linecap="round" stroke-linejoin="round"/>
<path d="M7.8457 19.5C7.9716 18.2656 8.56404 17.1209 9.5079 16.2882C10.4518 15.4555 11.6796 14.9944 12.953 14.9944C14.2264 14.9944 15.4542 15.4555 16.3981 16.2882C17.342 17.1209 17.9344 18.2656 18.0603 19.5C16.5461 20.4778 14.7697 20.9992 12.953 20.9992C11.1363 20.9992 9.35995 20.4778 7.8457 19.5Z" stroke="#4B5563" stroke-width="2" stroke-linecap="round" stroke-linejoin="round"/>
</svg>
